Coordinates
version=1
nRows=54
nColumns=12
inDegrees=yes

Units are S.I. units (second, meters, Newtons, ...)
Angles are in degrees

endheader
time	SC_y	SC_z	SC_x	AC_y	AC_z	AC_x	GH_y	GH_z	GH_yy	EL_x	PS_y
       0.0               -36.0          34.42           83.6          50.34         -2.551          11.78          -98.4           22.5          4.995          115.0          156.1
   0.01119               -36.0          34.42           83.6          50.34         -2.553          11.78          -98.4           22.5          5.005          115.0          156.0
   0.02238               -36.0          34.42          83.59          50.34         -2.555          11.78         -98.41          22.49          5.016          115.0          156.0
   0.03357               -36.0          34.41          83.59          50.33         -2.558          11.78         -98.41          22.49          5.027          115.0          156.0
   0.04475               -36.0          34.41          83.58          50.33          -2.56          11.78         -98.41          22.49          5.038          114.9          156.0
   0.05594               -36.0          34.41          83.57          50.33         -2.563          11.78         -98.42          22.49          5.051          114.9          155.9
   0.06713               -36.0          34.41          83.57          50.33         -2.566          11.78         -98.42          22.48          5.064          114.9          155.9
   0.07832               -36.0          34.41          83.56          50.33         -2.569          11.78         -98.42          22.48          5.079          114.9          155.9
   0.08951               -36.0          34.41          83.55          50.33         -2.572          11.77         -98.43          22.48          5.094          114.9          155.9
    0.1007               -36.0          34.41          83.54          50.33         -2.576          11.77         -98.43          22.48          5.111          114.8          155.8
    0.1119               -36.0           34.4          83.53          50.33         -2.579          11.77         -98.44          22.47          5.128          114.8          155.8
    0.1231               -36.0           34.4          83.53          50.32         -2.583          11.77         -98.44          22.47          5.147          114.8          155.7
    0.1343               -36.0           34.4          83.51          50.32         -2.588          11.77         -98.45          22.47          5.168          114.8          155.7
    0.1455               -36.0           34.4           83.5          50.32         -2.592          11.77         -98.45          22.46           5.19          114.7          155.6
    0.1566              -35.99           34.4          83.49          50.32         -2.598          11.77         -98.46          22.46          5.214          114.7          155.6
    0.1678              -35.99          34.39          83.48          50.32         -2.603          11.77         -98.47          22.45           5.24          114.7          155.5
     0.179              -35.99          34.39          83.46          50.32         -2.609          11.77         -98.47          22.45          5.269          114.6          155.5
    0.1902              -35.99          34.39          83.45          50.31         -2.616          11.77         -98.48          22.44            5.3          114.6          155.4
    0.2014              -35.99          34.38          83.43          50.31         -2.623          11.77         -98.49          22.43          5.333          114.5          155.4
    0.2126              -35.99          34.38          83.41          50.31         -2.631          11.76          -98.5          22.43           5.37          114.5          155.3
    0.2238              -35.99          34.38          83.39           50.3         -2.639          11.76         -98.51          22.42          5.411          114.4          155.2
     0.235              -35.98          34.37          83.37           50.3         -2.649          11.76         -98.52          22.41          5.455          114.4          155.1
    0.2462              -35.98          34.37          83.34           50.3         -2.659          11.76         -98.54           22.4          5.504          114.3          155.0
    0.2573              -35.98          34.36          83.31          50.29         -2.671          11.76         -98.55          22.39          5.559          114.2          154.9
    0.2685              -35.98          34.36          83.28          50.29         -2.684          11.76         -98.57          22.38           5.62          114.2          154.7
    0.2797              -35.97          34.35          83.25          50.28         -2.698          11.75         -98.59          22.37          5.687          114.1          154.6
    0.2909              -35.97          34.34          83.21          50.28         -2.714          11.75         -98.61          22.35          5.763          114.0          154.4
    0.3021              -35.97          34.33          83.16          50.27         -2.732          11.75         -98.63          22.34          5.848          113.8          154.3
    0.3133              -35.96          34.32          83.11          50.26         -2.753          11.74         -98.66          22.32          5.945          113.7          154.1
    0.3245              -35.96          34.31          83.06          50.26         -2.776          11.74         -98.69           22.3          6.054          113.6          153.8
    0.3357              -35.95           34.3          82.99          50.25         -2.802          11.74         -98.72          22.28          6.179          113.4          153.6
    0.3468              -35.95          34.28          82.92          50.24         -2.833          11.73         -98.76          22.25          6.322          113.2          153.3
     0.358              -35.94          34.27          82.84          50.22         -2.868          11.72          -98.8          22.22          6.488          113.0          152.9
    0.3692              -35.93          34.25          82.74          50.21         -2.909          11.72         -98.86          22.18           6.68          112.7          152.5
    0.3804              -35.92          34.23          82.62          50.19         -2.957          11.71         -98.92          22.14          6.905          112.4          152.1
    0.3916              -35.91           34.2          82.48          50.17         -3.013           11.7         -98.99          22.09           7.17          112.0          151.5
    0.4028               -35.9          34.17          82.32          50.15          -3.08          11.69         -99.08          22.03          7.485          111.6          150.8
     0.414              -35.88          34.13          82.13          50.12          -3.16          11.67         -99.18          21.96          7.863          111.1          150.0
    0.4252              -35.86          34.08          81.89          50.08         -3.257          11.66          -99.3          21.88           8.32          110.5          149.1
    0.4364              -35.84          34.03          81.61          50.04         -3.376          11.64         -99.45          21.78          8.878          109.7          147.9
    0.4475              -35.81          33.96          81.25          49.99         -3.522          11.61         -99.64          21.65          9.567          108.8          146.5
    0.4587              -35.77          33.87          80.81          49.92         -3.704          11.58         -99.87          21.49          10.43          107.6          144.7
    0.4699              -35.72          33.76          80.25          49.84         -3.934          11.54         -100.2          21.29          11.51          106.1          142.4
    0.4811              -35.66          33.62          79.55          49.73         -4.226          11.49         -100.5          21.03          12.88          104.2          139.5
    0.4923              -35.59          33.45          78.64           49.6           -4.6          11.43         -101.0           20.7          14.65          101.8          135.8
    0.5035              -35.49          33.22          77.48          49.43          -5.08          11.35         -101.6          20.28          16.91          98.75          131.1
    0.5147              -35.37          32.93          75.99           49.2         -5.693          11.24         -102.4          19.75          19.79          94.81          125.0
    0.5259              -35.21          32.56          74.12          48.93         -6.464          11.11         -103.4          19.07          23.42          89.86          117.4
    0.5371              -35.02          32.12          71.85          48.59         -7.403          10.95         -104.6          18.25          27.84          83.83          108.2
    0.5482               -34.8           31.6          69.21           48.2         -8.492          10.77         -106.0          17.29          32.97          76.83          97.42
    0.5594              -34.56          31.04          66.36          47.77         -9.671          10.56         -107.5          16.26          38.52          69.25          85.78
    0.5706              -34.32          30.48           63.5          47.35         -10.85          10.36         -109.0          15.23          44.07          61.68          74.15
    0.5818               -34.1          29.96          60.86          46.95         -11.94          10.18         -110.4          14.28           49.2          54.68           63.4
     0.593              -33.91          29.52          58.59          46.62         -12.88          10.02         -111.6          13.45          53.62          48.65          54.13
